<svg width="70" height="70" viewBox="0 0 70 70" fill="none" xmlns="http://www.w3.org/2000/svg">
<g clip-path="url(#clip0_39_1995)">
<path d="M35 70.0001C54.33 70.0001 70 54.3301 70 35.0001C70 15.6702 54.33 0 35 0C15.67 0 0 15.6702 0 35.0001C0 54.3301 15.67 70.0001 35 70.0001Z" fill="#3A6C87"/>
<path d="M45.1063 68.4754C45.9752 68.2244 46.8341 67.9398 47.681 67.6223C48.7687 67.1997 49.8346 66.723 50.8747 66.1939C52.9558 65.1339 54.9257 63.8684 56.7547 62.4161C62.2795 58.0325 66.3511 52.0822 68.436 45.3448L68.4928 45.1217L49.3894 26.0204V26.0161C49.557 25.806 49.6413 25.5416 49.6264 25.2733C49.6115 25.005 49.4983 24.7516 49.3085 24.5614L45.441 20.6961C45.2507 20.5056 44.9968 20.3921 44.728 20.3772C44.4592 20.3622 44.1943 20.4469 43.9841 20.6151L42.2997 21.9561L38.8216 18.4736C38.792 18.2059 38.6647 17.9586 38.4641 17.779C38.2635 17.5994 38.0037 17.5001 37.7344 17.5001H32.2656C31.9968 17.5006 31.7375 17.6002 31.5374 17.7798C31.3372 17.9593 31.2102 18.2063 31.1806 18.4736L30.7913 21.9079C30.0785 22.1377 29.3857 22.4252 28.7197 22.7676L26.016 20.6151C25.8057 20.4469 25.5409 20.3622 25.2721 20.3772C25.0032 20.3921 24.7494 20.5056 24.5591 20.6961L20.6916 24.5592C20.5023 24.7493 20.3895 25.0022 20.3746 25.27C20.3597 25.5378 20.4437 25.8018 20.6106 26.0117L22.7675 28.7242C22.4261 29.3903 22.1393 30.0831 21.91 30.7957L18.4691 31.1764C18.2011 31.2071 17.954 31.3358 17.7751 31.5377C17.5962 31.7396 17.4983 32.0004 17.5 32.2701V37.7345C17.4993 38.0035 17.5978 38.2633 17.7766 38.4642C17.9553 38.6652 18.2019 38.7932 18.4691 38.8239L21.9516 42.3064L20.6106 43.9842C20.4425 44.1944 20.3577 44.4593 20.3727 44.7281C20.3876 44.9969 20.5012 45.2508 20.6916 45.4411L24.5591 49.3086C24.75 49.4984 25.0041 49.6111 25.2729 49.6252C25.5417 49.6393 25.8063 49.5539 26.016 49.3851L45.1063 68.4754ZM29.0894 24.9595L31.255 27.1251C31.2047 27.1492 31.1588 27.1776 31.1106 27.2039L31.08 27.2192L31.6641 26.9501C31.7297 26.9282 29.0303 24.9945 29.0894 24.9595ZM25.0381 28.9079L27.2169 31.0867C27.1885 31.1436 27.1513 31.1982 27.1228 31.2573L27.6194 30.2379C27.6522 30.1811 25.0163 28.9692 25.0381 28.9079Z" fill="#2F4B6C"/>
<path d="M32.2656 17.5001C31.9968 17.5006 31.7375 17.6002 31.5373 17.7798C31.3372 17.9593 31.2102 18.2063 31.1806 18.4736L30.7913 21.9079C30.0785 22.1377 29.3857 22.4252 28.7197 22.7676L26.016 20.6151C25.8057 20.4469 25.5409 20.3622 25.2721 20.3772C25.0032 20.3921 24.7494 20.5056 24.5591 20.6961L20.6916 24.5592C20.5023 24.7493 20.3895 25.0022 20.3746 25.27C20.3597 25.5378 20.4437 25.8018 20.6106 26.0117L22.7675 28.7242C22.4261 29.3903 22.1393 30.0831 21.91 30.7957L18.4691 31.1764C18.2011 31.2071 17.954 31.3358 17.7751 31.5377C17.5962 31.7396 17.4983 32.0004 17.5 32.2701V37.7345C17.4993 38.0035 17.5978 38.2632 17.7766 38.4642C17.9553 38.6652 18.2019 38.7932 18.4691 38.8239L21.9035 39.2089C22.1353 39.922 22.4241 40.6132 22.7675 41.2804L20.6106 43.9842C20.4425 44.1944 20.3577 44.4593 20.3727 44.7281C20.3876 44.9969 20.5012 45.2508 20.6916 45.4411L24.5591 49.3086C24.75 49.4984 25.0041 49.6111 25.2729 49.6252C25.5417 49.6393 25.8063 49.5539 26.016 49.3851L28.7197 47.2326C29.3869 47.5739 30.076 47.8604 30.7913 48.0901L31.1806 51.5245C31.2097 51.7921 31.3365 52.0397 31.5367 52.2197C31.7369 52.3997 31.9964 52.4995 32.2656 52.5001H37.7344C38.0026 52.4997 38.2613 52.4008 38.4614 52.2221C38.6614 52.0435 38.7888 51.7975 38.8194 51.5311L39.2088 48.0967C39.9219 47.8648 40.6131 47.5804 41.2803 47.237L43.9841 49.3895C44.1943 49.5577 44.4592 49.6424 44.728 49.6275C44.9968 49.6125 45.2506 49.499 45.441 49.3086L49.3085 45.4411C49.4989 45.2508 49.6124 44.9969 49.6274 44.7281C49.6423 44.4593 49.5576 44.1944 49.3894 43.9842L47.2325 41.2804C47.5738 40.6132 47.8603 39.922 48.09 39.2089L51.531 38.8239C51.7982 38.7932 52.0447 38.6652 52.2235 38.4642C52.4022 38.2632 52.5007 38.0035 52.5 37.7345V32.2701C52.5007 32.0012 52.4022 31.7414 52.2235 31.5404C52.0447 31.3395 51.7982 31.2114 51.531 31.1807L48.0966 30.7957C47.8652 30.0829 47.5762 29.3901 47.2325 28.7242L49.3894 26.0161C49.5563 25.8061 49.6403 25.5422 49.6254 25.2744C49.6105 25.0066 49.4977 24.7536 49.3085 24.5636L45.441 20.6939C45.2506 20.5034 44.9968 20.3899 44.728 20.375C44.4592 20.36 44.1943 20.4448 43.9841 20.6129L41.2803 22.7654C40.6142 22.4239 39.9214 22.1371 39.2088 21.9079L38.8194 18.4757C38.7903 18.2081 38.6636 17.9606 38.4634 17.7806C38.2632 17.6006 38.0036 17.5007 37.7344 17.5001H32.2656ZM33.2391 19.6876H36.7566L37.1066 22.7851C37.1313 23.0049 37.2221 23.2121 37.367 23.3792C37.5119 23.5464 37.7041 23.6657 37.9181 23.7214C38.9681 23.9926 39.9744 24.4082 40.9085 24.9595C41.0994 25.0729 41.3204 25.1254 41.5419 25.1102C41.7635 25.095 41.9751 25.0126 42.1488 24.8742L44.5835 22.9339L47.0706 25.4167L45.1303 27.8557C44.9921 28.0285 44.9096 28.2391 44.8936 28.4598C44.8776 28.6804 44.9288 28.9008 45.0406 29.0917C45.5919 30.0257 46.0097 31.0364 46.2831 32.0864C46.3392 32.3001 46.4587 32.4917 46.6258 32.6362C46.7929 32.7807 46.9999 32.8712 47.2194 32.8957L50.3125 33.2457V36.7611L47.2194 37.1111C46.9999 37.1356 46.7929 37.2261 46.6258 37.3706C46.4587 37.5151 46.3392 37.7068 46.2831 37.9204C46.0119 38.9704 45.5897 39.9767 45.0406 40.9129C44.9285 41.1036 44.8769 41.3238 44.8925 41.5445C44.9081 41.7651 44.9903 41.9759 45.1281 42.1489L47.0706 44.5879L44.5835 47.0707L42.1488 45.1304C41.9754 44.9916 41.7638 44.9089 41.5423 44.8933C41.3207 44.8777 41.0996 44.9299 40.9085 45.0429C39.9746 45.5957 38.9681 46.0154 37.9181 46.2898C37.7044 46.3454 37.5124 46.4643 37.3676 46.631C37.2227 46.7978 37.1317 47.0044 37.1066 47.2239L36.7566 50.3126H33.2435L32.8935 47.2195C32.8687 46.9997 32.7779 46.7925 32.633 46.6254C32.4881 46.4582 32.296 46.3389 32.0819 46.2832C31.0324 46.0116 30.0259 45.5949 29.0916 45.0451C28.9006 44.9317 28.6797 44.8792 28.4581 44.8944C28.2366 44.9097 28.0249 44.992 27.8513 45.1304L25.4166 47.0707L22.9294 44.5879L24.8697 42.1489C25.0079 41.9761 25.0905 41.7655 25.1065 41.5448C25.1225 41.3242 25.0712 41.1038 24.9594 40.9129C24.4082 39.9788 23.99 38.9723 23.7169 37.9226C23.6612 37.7085 23.5419 37.5164 23.3748 37.3715C23.2076 37.2266 23.0005 37.1358 22.7806 37.1111L19.6875 36.7611V33.2436L22.7806 32.8936C23.0005 32.8688 23.2076 32.778 23.3748 32.6331C23.5419 32.4882 23.6612 32.2961 23.7169 32.082C23.9881 31.032 24.4103 30.0257 24.9594 29.0917C25.0715 28.901 25.1232 28.6808 25.1075 28.4601C25.0919 28.2395 25.0098 28.0287 24.8719 27.8557L22.9272 25.4189L25.4188 22.9339L27.8535 24.8742C28.0269 25.013 28.2384 25.0957 28.46 25.1113C28.6815 25.127 28.9026 25.0748 29.0938 24.9617C30.0276 24.4083 31.0341 23.9879 32.0841 23.7126C32.2975 23.6572 32.4892 23.5386 32.6341 23.3723C32.7789 23.206 32.8701 22.9998 32.8956 22.7807L33.2391 19.6876ZM35 26.2501C30.181 26.2501 26.25 30.1811 26.25 35.0001C26.25 39.8192 30.181 43.7501 35 43.7501C39.8191 43.7501 43.75 39.8192 43.75 35.0001C43.75 30.1811 39.8191 26.2501 35 26.2501ZM35 28.4376C38.6378 28.4376 41.5625 31.3623 41.5625 35.0001C41.5625 38.6379 38.6378 41.5626 35 41.5626C31.3622 41.5626 28.4375 38.6379 28.4375 35.0001C28.4375 31.3623 31.3622 28.4376 35 28.4376Z" fill="white"/>
</g>
<defs>
<clipPath id="clip0_39_1995">
<rect width="70" height="70" fill="white"/>
</clipPath>
</defs>
</svg>
