<svg width="105" height="104" viewBox="0 0 105 104" fill="none" xmlns="http://www.w3.org/2000/svg">
<path fill-rule="evenodd" clip-rule="evenodd" d="M52.1139 102C79.7281 102 102.114 79.6142 102.114 52C102.114 24.3858 79.7281 2 52.1139 2C24.4997 2 2.11389 24.3858 2.11389 52C2.11389 79.6142 24.4997 102 52.1139 102Z" fill="white" stroke="#263238" stroke-width="3.5" stroke-linecap="round" stroke-linejoin="round"/>
<path fill-rule="evenodd" clip-rule="evenodd" d="M37.6199 32.5448C31.8948 31.9326 24.9867 27.4861 24.9867 27.4861L10.4659 51.6528C20.3619 57.2608 22.2558 64.5728 26.6411 68.4543C31.0264 72.3357 41.9675 77.4539 50.3372 82.6923C53.2867 84.4646 62.7774 89.2505 63.9462 79.9021C64.0289 79.9761 74.6335 84.1379 72.2974 74.3554C79.4802 76.7379 80.1105 70.2122 79.2008 67.7401C83.7861 69.2497 88.6936 62.9341 85.3159 59.7996C77.0051 52.4584 75.6989 49.8592 58.2289 40.2018C55.8972 38.9128 53.0256 37.5318 50.0358 36.2821C49.1388 36.9224 45.192 39.691 35.1783 46.1314C28.3175 45.5648 32.9174 37.6579 37.6199 32.5448Z" fill="#FFEBD5" stroke="#263238" stroke-width="3.5" stroke-linecap="round" stroke-linejoin="round"/>
<path fill-rule="evenodd" clip-rule="evenodd" d="M81.5518 27.5208C81.5518 27.5208 76.7279 28.8859 70.8179 26.9688C60.7306 23.2615 46.7932 26.6539 42.7922 28.1281C38.7913 29.6022 25.5385 45.1125 35.2502 45.9145C46.8629 38.4457 49.9841 36.0175 49.9841 36.0175C77.7296 48.6429 86.332 60.9604 86.3693 60.9854L95.2113 52.8002L81.5518 27.5208Z" fill="#FFEBD5" stroke="#263238" stroke-width="3.5" stroke-linecap="round" stroke-linejoin="round"/>
<path fill-rule="evenodd" clip-rule="evenodd" d="M16.4155 17L23.6283 21.3339C25.5229 22.4723 26.1401 24.9241 25.0023 26.8176L10.0683 51.672C8.93256 53.5622 6.48253 54.1756 4.58968 53.0383L2.11389 51.5507C2.23522 38.1001 7.66757 25.9181 16.4155 17V17Z" fill="#76B6FF" stroke="#263238" stroke-width="3.5" stroke-linecap="round" stroke-linejoin="round"/>
<path fill-rule="evenodd" clip-rule="evenodd" d="M88.8999 18C87.8099 18.6583 86.8275 19.3061 86.3469 19.5599L81.5485 22.0938C80.2257 22.7923 79.728 24.4309 80.4362 25.7539L95.4084 53.7209C96.1173 55.0451 97.7629 55.5503 99.0855 54.8519L102.261 53.1748C102.27 52.7968 102.274 52.4177 102.274 52.0377C102.274 38.8889 97.1986 26.9256 88.8999 18V18Z" fill="#76B6FF" stroke="#263238" stroke-width="3.5" stroke-linecap="round" stroke-linejoin="round"/>
<path fill-rule="evenodd" clip-rule="evenodd" d="M79.773 67.5987L63.4321 57.7801L79.773 67.5987Z" fill="#E1F2FA"/>
<path d="M79.773 67.5987L63.4321 57.7801" stroke="#263238" stroke-width="3.5" stroke-linecap="round" stroke-linejoin="round"/>
<path fill-rule="evenodd" clip-rule="evenodd" d="M74.1413 74.1242L58.9675 65.0069L74.1413 74.1242Z" fill="#E1F2FA"/>
<path d="M74.1413 74.1242L58.9675 65.0069" stroke="#263238" stroke-width="3.5" stroke-linecap="round" stroke-linejoin="round"/>
<path fill-rule="evenodd" clip-rule="evenodd" d="M64.4724 79.3189L53.9675 73.0069L64.4724 79.3189Z" fill="#E1F2FA"/>
<path d="M64.4724 79.3189L53.9675 73.0069" stroke="#263238" stroke-width="3.5" stroke-linecap="round" stroke-linejoin="round"/>
</svg>
