<?xml version="1.0" encoding="utf-8"?>
<!-- Generator: Adobe Illustrator 27.1.1, SVG Export Plug-In . SVG Version: 6.00 Build 0)  -->
<svg version="1.1" id="svg4" xmlns="http://www.w3.org/2000/svg" xmlns:xlink="http://www.w3.org/1999/xlink" x="0px" y="0px"
	 viewBox="0 0 920 956.8" style="enable-background:new 0 0 920 956.8;" xml:space="preserve">
<style type="text/css">
	.st0{fill:#FFFFFF;stroke:#000000;stroke-miterlimit:10;}
	.st1{fill-rule:evenodd;clip-rule:evenodd;fill:#2A2D43;}
	.st2{fill:url(#SVGID_1_);}
	.st3{fill:url(#SVGID_00000109009498235606723150000014712841186365079182_);}
	.st4{fill:#F7941D;}
	.st5{fill:#0079C1;}
	.st6{font-family:'Poppins-SemiBold';}
	.st7{font-size:72px;}
	.st8{fill:url(#SVGID_00000152239199515820852940000009299645837234591114_);}
	.st9{fill:url(#SVGID_00000170277858330253208240000017567840559975456907_);}
	.st10{fill:url(#SVGID_00000093888409158857778280000002895952181555988099_);}
	.st11{fill:url(#SVGID_00000042007537191751818150000007824271777702226319_);}
	.st12{fill:#2CBAA2;}
</style>
<ellipse class="st0" cx="436.4" cy="532.2" rx="397" ry="393.6"/>
<path id="path2" class="st1" d="M444.2,138.2c97.6,1.2,191.4,38.1,263.6,103.8c56.5,51.3,97.1,117.6,117.1,191.2
	c19.8,73.4,18.3,150.9-4.2,223.6c-23.1,74.2-67.4,140.1-127.5,189.5c-72.9,60.3-164.9,92.7-259.5,91.2
	c-97.6-1.2-191.4-38.1-263.6-103.8c-57.7-52.3-98.9-120.5-118.3-195.9c-18.4-72-16.6-147.7,5.4-218.8
	c23.2-74.2,67.5-140.2,127.5-189.6C257.6,169.1,349.6,136.8,444.2,138.2L444.2,138.2z M439,150.4c-78.7,0.2-155.4,24.4-219.9,69.3
	C116.5,291,54.6,407.3,52.8,532.2c-1.4,88.1,27.3,174,81.3,243.5c44.9,57.9,105.3,102,174.2,126.9c69.1,25,143.8,29.8,215.5,14.1
	c168.1-37,291.6-180.4,303.4-352.1c6.7-97.1-23.4-193.2-84.4-269.1C669,203.3,557.2,149.9,439,150.4z M448.1,241.2
	c101.1,2.6,193.9,56.4,246.3,143c36.2,59.7,50.2,130.2,39.5,199.2c-24.6,159.2-171.7,269.8-331.5,249.2
	c-159.7-20.6-273.9-164.8-257.3-325C161,353.2,293.1,237.1,448.1,241.2L448.1,241.2z"/>
<linearGradient id="SVGID_1_" gradientUnits="userSpaceOnUse" x1="165.52" y1="962.605" x2="425.69" y2="962.605" gradientTransform="matrix(1 0 0 1 0 -424.24)">
	<stop  offset="0" style="stop-color:#0079C1"/>
	<stop  offset="1" style="stop-color:#2CBAA2"/>
</linearGradient>
<path class="st2" d="M400.8,465.8l-72.9,72.3l72.9,72.8l36.1-36.7l-36.1-36.1l36.1-36.1L400.8,465.8L400.8,465.8z"/>
<linearGradient id="SVGID_00000109744179376879250150000008235237686240457872_" gradientUnits="userSpaceOnUse" x1="165.52" y1="962.3099" x2="425.69" y2="962.3099" gradientTransform="matrix(1 0 0 1 0 -424.24)">
	<stop  offset="0" style="stop-color:#0079C1"/>
	<stop  offset="1" style="stop-color:#2CBAA2"/>
</linearGradient>
<path style="fill:url(#SVGID_00000109744179376879250150000008235237686240457872_);" d="M400.8,688.4L250.4,538.1l150.4-149.8
	l74.6,74.6l36.7-36.1L400.8,315.4L289.5,426.8L178.2,538.1l111.3,111.3l111.3,111.3l111.3-111.3l-36.7-36.1L400.8,688.4L400.8,688.4
	z"/>
<path class="st4" d="M628,538.1l-36.1,36.1l38.5,39l75.2-75.2l-75.2-75.2l-38.5,39L628,538.1z"/>
<path class="st4" d="M550.8,538.2l-39.1-39.1l-39.1,39.1l39.1,39.2L550.8,538.2z"/>
<text transform="matrix(0.2135 -0.9769 0.9769 0.2135 123.18 486.1697)" class="st5 st6 st7">F</text>
<text transform="matrix(0.3336 -0.9427 0.9427 0.3336 130.6499 450.4097)" class="st5 st6 st7">o</text>
<text transform="matrix(0.437 -0.8995 0.8995 0.437 145.8199 408.7304)" class="st5 st6 st7">r</text>
<text transform="matrix(0.5258 -0.8506 0.8506 0.5258 157.6899 383.63)" class="st5 st6 st7">E</text>
<text transform="matrix(0.6327 -0.7744 0.7744 0.6327 176.57 352.2395)" class="st5 st6 st7">a</text>
<text transform="matrix(0.7334 -0.6798 0.6798 0.7334 206.34 315.93)" class="st5 st6 st7">c</text>
<text transform="matrix(0.8178 -0.5754 0.5754 0.8178 236.68 287.4698)" class="st5 st6 st7">h</text>
<text transform="matrix(0.9157 -0.4018 0.4018 0.9157 288.1599 252.78)" class="st5 st6 st7">A</text>
<text transform="matrix(0.9636 -0.2672 0.2672 0.9636 333.6599 233)" class="st5 st6 st7">c</text>
<text transform="matrix(0.9913 -0.1319 0.1319 0.9913 373.62 221.61)" class="st5 st6 st7">a</text>
<text transform="matrix(0.9999 1.308960e-02 -1.308960e-02 0.9999 420.11 215.31)" class="st5 st6 st7">d</text>
<text transform="matrix(0.9886 0.1506 -0.1506 0.9886 467.07 215.9701)" class="st5 st6 st7">e</text>
<text transform="matrix(0.9465 0.3226 -0.3226 0.9465 509.1601 220.8201)" class="st5 st6 st7">m</text>
<text transform="matrix(0.875 0.484 -0.484 0.875 577.8702 245.52)" class="st5 st6 st7">y</text>
<text transform="matrix(0.766 0.6428 -0.6428 0.766 628.2299 274.5799)" class="st5 st6 st7">A</text>
<text transform="matrix(0.6937 0.7203 -0.7203 0.6937 666.0495 307.3201)" class="st5 st6 st7">l</text>
<text transform="matrix(0.6242 0.7813 -0.7813 0.6242 679.4297 320.3499)" class="st5 st6 st7">u</text>
<text transform="matrix(0.4681 0.8837 -0.8837 0.4681 708.8899 355.13)" class="st5 st6 st7">m</text>
<text transform="matrix(0.2992 0.9542 -0.9542 0.2992 742.08 420.08)" class="st5 st6 st7">n</text>
<text transform="matrix(0.2018 0.9794 -0.9794 0.2018 755.2903 464.29)" class="st5 st6 st7">i</text>
<linearGradient id="SVGID_00000002366160743040180660000017520589073871897249_" gradientUnits="userSpaceOnUse" x1="-256.7813" y1="733.394" x2="-216.3913" y2="733.394" gradientTransform="matrix(1.012277e-02 -0.9999 0.9999 1.012277e-02 -632.5322 320.0111)">
	<stop  offset="0" style="stop-color:#0079C1"/>
	<stop  offset="1" style="stop-color:#2CBAA2"/>
</linearGradient>
<path style="fill:url(#SVGID_00000002366160743040180660000017520589073871897249_);" d="M87.3,547.5L98.4,559l11.4-11.2l-5.6-5.7
	l-5.7,5.5L93,542L87.3,547.5L87.3,547.5z"/>
<linearGradient id="SVGID_00000030467616092993059210000006009073712307477690_" gradientUnits="userSpaceOnUse" x1="-256.7813" y1="733.3491" x2="-216.3913" y2="733.3491" gradientTransform="matrix(1.012277e-02 -0.9999 0.9999 1.012277e-02 -632.5322 320.0111)">
	<stop  offset="0" style="stop-color:#0079C1"/>
	<stop  offset="1" style="stop-color:#2CBAA2"/>
</linearGradient>
<path style="fill:url(#SVGID_00000030467616092993059210000006009073712307477690_);" d="M121.9,547.9L98.3,571l-23-23.6L87,535.9
	l-5.6-5.8L64,547.3l17.1,17.5l17.1,17.5l17.5-17.1l17.5-17.1L116,530.5l-5.7,5.6L121.9,547.9z"/>
<path class="st4" d="M98.9,512.3l5.6,5.7l6.1-5.9L99,500.3l-11.8,11.5l6,6L98.9,512.3z"/>
<path class="st4" d="M98.8,524.3l-6.1,6l6,6.1l6.1-6L98.8,524.3z"/>
<linearGradient id="SVGID_00000011715009635274570890000005262779694739884423_" gradientUnits="userSpaceOnUse" x1="976.3693" y1="659.5629" x2="1016.7593" y2="659.5629" gradientTransform="matrix(3.036402e-02 0.9995 -0.9995 3.036402e-02 1411.4575 -497.0054)">
	<stop  offset="0" style="stop-color:#0079C1"/>
	<stop  offset="1" style="stop-color:#2CBAA2"/>
</linearGradient>
<path style="fill:url(#SVGID_00000011715009635274570890000005262779694739884423_);" d="M794.2,535.1l-11.6-11l-11,11.7l5.9,5.4
	l5.4-5.8l5.8,5.4L794.2,535.1L794.2,535.1z"/>
<linearGradient id="SVGID_00000002378062296554740460000012360715038146819251_" gradientUnits="userSpaceOnUse" x1="976.3693" y1="659.5284" x2="1016.7593" y2="659.5284" gradientTransform="matrix(3.036402e-02 0.9995 -0.9995 3.036402e-02 1411.4575 -497.0054)">
	<stop  offset="0" style="stop-color:#0079C1"/>
	<stop  offset="1" style="stop-color:#2CBAA2"/>
</linearGradient>
<path style="fill:url(#SVGID_00000002378062296554740460000012360715038146819251_);" d="M759.7,536.2l22.6-24l24,22.6L795,546.7
	l5.8,5.5l16.8-17.8l-17.8-16.8l-17.8-16.8l-16.8,17.8l-16.8,17.8l17.8,16.8l5.4-5.9L759.7,536.2L759.7,536.2z"/>
<path class="st4" d="M784.1,570.8l-5.8-5.4l-5.9,6.2l12,11.3l11.3-12l-6.2-5.8L784.1,570.8L784.1,570.8z"/>
<path class="st4" d="M783.7,558.8l5.9-6.3l-6.3-5.9l-5.9,6.3L783.7,558.8z"/>
<text transform="matrix(0.2907 0.9568 -0.9568 0.2907 75.8004 612.1599)" class="st12 st6 st7">L</text>
<text transform="matrix(0.3798 0.9251 -0.9251 0.3798 86.1502 646.6299)" class="st12 st6 st7">e</text>
<text transform="matrix(0.5024 0.8646 -0.8646 0.5024 112.9104 706.7199)" class="st12 st6 st7">r</text>
<text transform="matrix(0.5872 0.8094 -0.8094 0.5872 128.8996 734.73)" class="st12 st6 st7">é</text>
<text transform="matrix(0.6825 0.7309 -0.7309 0.6825 157.5597 773.6099)" class="st12 st6 st7">s</text>
<text transform="matrix(0.772 0.6357 -0.6357 0.772 187.21 805.24)" class="st12 st6 st7">e</text>
<text transform="matrix(0.8574 0.5146 -0.5146 0.8574 225.2298 836.2999)" class="st12 st6 st7">a</text>
<text transform="matrix(0.9239 0.3827 -0.3827 0.9239 271.2999 863.45)" class="st12 st6 st7">u</text>
<text transform="matrix(0.9773 0.212 -0.212 0.9773 337.0301 888.35)" class="st12 st6 st7">d</text>
<text transform="matrix(0.9945 0.1047 -0.1047 0.9945 388.14 899.07)" class="st12 st6 st7">e</text>
<text transform="matrix(0.9933 -0.1158 0.1158 0.9933 439.28 905.31)" class="st12 st6 st7">s</text>
<text transform="matrix(0.9749 -0.2226 0.2226 0.9749 498.54 897.41)" class="st12 st6 st7">E</text>
<text transform="matrix(0.9474 -0.3201 0.3201 0.9474 539.0201 888.3401)" class="st12 st6 st7">a</text>
<text transform="matrix(0.9011 -0.4337 0.4337 0.9011 588.79 871.15)" class="st12 st6 st7">c</text>
<text transform="matrix(0.8346 -0.5509 0.5509 0.8346 631.6301 850.42)" class="st12 st6 st7">h</text>
<text transform="matrix(0.6957 -0.7184 0.7184 0.6957 690.1599 809.21)" class="st12 st6 st7">C</text>
<text transform="matrix(0.5726 -0.8199 0.8199 0.5726 731.53 765.3404)" class="st12 st6 st7">o</text>
<text transform="matrix(0.4517 -0.8922 0.8922 0.4517 760.1699 723.8904)" class="st12 st6 st7">d</text>
<text transform="matrix(0.3325 -0.9431 0.9431 0.3325 783.65 676.5402)" class="st12 st6 st7">e</text>
<text transform="matrix(0.2373 -0.9714 0.9714 0.2373 798.95 631.5701)" class="st12 st6 st7">r</text>
</svg>
